<mxfile host="app.diagrams.net" modified="2021-10-14T02:01:05.044Z" agent="5.0 (X11; Linux x86_64) AppleWebKit/537.36 (KHTML, like Gecko) Chrome/94.0.4606.81 Safari/537.36" etag="cEjI0rsONyhYaGuXcIFX" version="15.5.2" type="github">
  <diagram id="Jj4ZIKJrYQmHQxBTEjg8" name="Page-1">
    <mxGraphModel dx="838" dy="521" grid="1" gridSize="10" guides="1" tooltips="1" connect="1" arrows="1" fold="1" page="1" pageScale="1" pageWidth="827" pageHeight="1169" math="0" shadow="0">
      <root>
        <mxCell id="0" />
        <mxCell id="1" parent="0" />
        <mxCell id="Y7osBfzo1wvq5lJEdFJ6-59" value="" style="rounded=0;whiteSpace=wrap;html=1;fillColor=#fff2cc;strokeColor=#d6b656;" vertex="1" parent="1">
          <mxGeometry x="110" y="10" width="520" height="440" as="geometry" />
        </mxCell>
        <mxCell id="Y7osBfzo1wvq5lJEdFJ6-1" value="Administrador" style="shape=umlActor;verticalLabelPosition=bottom;verticalAlign=top;html=1;outlineConnect=0;fillColor=#CC0000;" vertex="1" parent="1">
          <mxGeometry x="170" y="160" width="30" height="70" as="geometry" />
        </mxCell>
        <mxCell id="Y7osBfzo1wvq5lJEdFJ6-2" value="Empleado" style="shape=umlActor;verticalLabelPosition=bottom;verticalAlign=top;html=1;outlineConnect=0;fillColor=#CC0000;" vertex="1" parent="1">
          <mxGeometry x="170" y="360" width="30" height="60" as="geometry" />
        </mxCell>
        <mxCell id="Y7osBfzo1wvq5lJEdFJ6-10" value="Generar Reporte" style="ellipse;whiteSpace=wrap;html=1;fillColor=#dae8fc;strokeColor=#6c8ebf;" vertex="1" parent="1">
          <mxGeometry x="290" y="70" width="90" height="50" as="geometry" />
        </mxCell>
        <mxCell id="Y7osBfzo1wvq5lJEdFJ6-11" value="Actualizar BD Tablero" style="ellipse;whiteSpace=wrap;html=1;fillColor=#dae8fc;strokeColor=#6c8ebf;" vertex="1" parent="1">
          <mxGeometry x="290" y="280.15" width="90" height="50" as="geometry" />
        </mxCell>
        <mxCell id="Y7osBfzo1wvq5lJEdFJ6-13" value="Gestionar InformaciÃ³n Usuarios" style="ellipse;whiteSpace=wrap;html=1;fillColor=#dae8fc;strokeColor=#6c8ebf;" vertex="1" parent="1">
          <mxGeometry x="264" y="380" width="90" height="50" as="geometry" />
        </mxCell>
        <mxCell id="Y7osBfzo1wvq5lJEdFJ6-15" value="Gestionar Datos Usuario" style="ellipse;whiteSpace=wrap;html=1;fillColor=#dae8fc;strokeColor=#6c8ebf;" vertex="1" parent="1">
          <mxGeometry x="280" y="140" width="100" height="50" as="geometry" />
        </mxCell>
        <mxCell id="Y7osBfzo1wvq5lJEdFJ6-16" value="Gestionar Empleados" style="ellipse;whiteSpace=wrap;html=1;fillColor=#dae8fc;strokeColor=#6c8ebf;" vertex="1" parent="1">
          <mxGeometry x="290" y="220" width="90" height="50" as="geometry" />
        </mxCell>
        <mxCell id="Y7osBfzo1wvq5lJEdFJ6-17" value="" style="endArrow=none;html=1;rounded=0;entryX=0.5;entryY=0.5;entryDx=0;entryDy=0;entryPerimeter=0;exitX=0;exitY=0.5;exitDx=0;exitDy=0;" edge="1" parent="1" source="Y7osBfzo1wvq5lJEdFJ6-10" target="Y7osBfzo1wvq5lJEdFJ6-1">
          <mxGeometry width="50" height="50" relative="1" as="geometry">
            <mxPoint x="130" y="370" as="sourcePoint" />
            <mxPoint x="180" y="320" as="targetPoint" />
          </mxGeometry>
        </mxCell>
        <mxCell id="Y7osBfzo1wvq5lJEdFJ6-18" value="" style="endArrow=none;html=1;rounded=0;exitX=0.5;exitY=0.5;exitDx=0;exitDy=0;exitPerimeter=0;entryX=0;entryY=0.5;entryDx=0;entryDy=0;" edge="1" parent="1" source="Y7osBfzo1wvq5lJEdFJ6-1" target="Y7osBfzo1wvq5lJEdFJ6-15">
          <mxGeometry width="50" height="50" relative="1" as="geometry">
            <mxPoint x="390" y="360" as="sourcePoint" />
            <mxPoint x="440" y="310" as="targetPoint" />
          </mxGeometry>
        </mxCell>
        <mxCell id="Y7osBfzo1wvq5lJEdFJ6-19" value="" style="endArrow=none;html=1;rounded=0;exitX=0.5;exitY=0.5;exitDx=0;exitDy=0;exitPerimeter=0;entryX=0;entryY=0.5;entryDx=0;entryDy=0;" edge="1" parent="1" source="Y7osBfzo1wvq5lJEdFJ6-1" target="Y7osBfzo1wvq5lJEdFJ6-16">
          <mxGeometry width="50" height="50" relative="1" as="geometry">
            <mxPoint x="390" y="360" as="sourcePoint" />
            <mxPoint x="440" y="310" as="targetPoint" />
          </mxGeometry>
        </mxCell>
        <mxCell id="Y7osBfzo1wvq5lJEdFJ6-20" value="" style="endArrow=none;html=1;rounded=0;exitX=0.5;exitY=0.5;exitDx=0;exitDy=0;exitPerimeter=0;entryX=0;entryY=0.5;entryDx=0;entryDy=0;" edge="1" parent="1" source="Y7osBfzo1wvq5lJEdFJ6-1" target="Y7osBfzo1wvq5lJEdFJ6-11">
          <mxGeometry width="50" height="50" relative="1" as="geometry">
            <mxPoint x="390" y="360" as="sourcePoint" />
            <mxPoint x="440" y="310" as="targetPoint" />
          </mxGeometry>
        </mxCell>
        <mxCell id="Y7osBfzo1wvq5lJEdFJ6-21" value="Agregar" style="ellipse;whiteSpace=wrap;html=1;fillColor=#B3B3B3;" vertex="1" parent="1">
          <mxGeometry x="420" y="90" width="90" height="20" as="geometry" />
        </mxCell>
        <mxCell id="Y7osBfzo1wvq5lJEdFJ6-22" value="Eliminar" style="ellipse;whiteSpace=wrap;html=1;fillColor=#B3B3B3;" vertex="1" parent="1">
          <mxGeometry x="450" y="110" width="90" height="20" as="geometry" />
        </mxCell>
        <mxCell id="Y7osBfzo1wvq5lJEdFJ6-23" value="Editar" style="ellipse;whiteSpace=wrap;html=1;fillColor=#B3B3B3;" vertex="1" parent="1">
          <mxGeometry x="460" y="140" width="90" height="20" as="geometry" />
        </mxCell>
        <mxCell id="Y7osBfzo1wvq5lJEdFJ6-25" value="" style="endArrow=none;html=1;rounded=0;exitX=1;exitY=0;exitDx=0;exitDy=0;entryX=0;entryY=0.5;entryDx=0;entryDy=0;" edge="1" parent="1" source="Y7osBfzo1wvq5lJEdFJ6-15" target="Y7osBfzo1wvq5lJEdFJ6-21">
          <mxGeometry width="50" height="50" relative="1" as="geometry">
            <mxPoint x="390" y="240" as="sourcePoint" />
            <mxPoint x="440" y="190" as="targetPoint" />
          </mxGeometry>
        </mxCell>
        <mxCell id="Y7osBfzo1wvq5lJEdFJ6-29" value="" style="endArrow=none;html=1;rounded=0;exitX=1;exitY=0.5;exitDx=0;exitDy=0;entryX=0;entryY=0.5;entryDx=0;entryDy=0;" edge="1" parent="1" source="Y7osBfzo1wvq5lJEdFJ6-15" target="Y7osBfzo1wvq5lJEdFJ6-22">
          <mxGeometry width="50" height="50" relative="1" as="geometry">
            <mxPoint x="390" y="240" as="sourcePoint" />
            <mxPoint x="440" y="190" as="targetPoint" />
          </mxGeometry>
        </mxCell>
        <mxCell id="Y7osBfzo1wvq5lJEdFJ6-30" value="" style="endArrow=none;html=1;rounded=0;entryX=0;entryY=0.5;entryDx=0;entryDy=0;exitX=1;exitY=0.5;exitDx=0;exitDy=0;" edge="1" parent="1" source="Y7osBfzo1wvq5lJEdFJ6-15" target="Y7osBfzo1wvq5lJEdFJ6-23">
          <mxGeometry width="50" height="50" relative="1" as="geometry">
            <mxPoint x="390" y="240" as="sourcePoint" />
            <mxPoint x="440" y="190" as="targetPoint" />
          </mxGeometry>
        </mxCell>
        <mxCell id="Y7osBfzo1wvq5lJEdFJ6-32" value="Descargar" style="ellipse;whiteSpace=wrap;html=1;fillColor=#B3B3B3;" vertex="1" parent="1">
          <mxGeometry x="420" y="40" width="90" height="20" as="geometry" />
        </mxCell>
        <mxCell id="Y7osBfzo1wvq5lJEdFJ6-33" value="" style="endArrow=none;html=1;rounded=0;exitX=1;exitY=0;exitDx=0;exitDy=0;entryX=0;entryY=0.5;entryDx=0;entryDy=0;" edge="1" parent="1" source="Y7osBfzo1wvq5lJEdFJ6-10" target="Y7osBfzo1wvq5lJEdFJ6-32">
          <mxGeometry width="50" height="50" relative="1" as="geometry">
            <mxPoint x="390" y="260" as="sourcePoint" />
            <mxPoint x="440" y="210" as="targetPoint" />
          </mxGeometry>
        </mxCell>
        <mxCell id="Y7osBfzo1wvq5lJEdFJ6-34" value="&amp;lt;Include&amp;gt;" style="text;html=1;strokeColor=none;fillColor=none;align=center;verticalAlign=middle;whiteSpace=wrap;rounded=0;rotation=-35;" vertex="1" parent="1">
          <mxGeometry x="354" y="100" width="60" height="30" as="geometry" />
        </mxCell>
        <mxCell id="Y7osBfzo1wvq5lJEdFJ6-38" value="&amp;lt;Include&amp;gt;" style="text;html=1;strokeColor=none;fillColor=none;align=center;verticalAlign=middle;whiteSpace=wrap;rounded=0;rotation=-30;" vertex="1" parent="1">
          <mxGeometry x="355.25" y="39.67" width="60" height="25" as="geometry" />
        </mxCell>
        <mxCell id="Y7osBfzo1wvq5lJEdFJ6-39" value="&amp;lt;Include&amp;gt;" style="text;html=1;strokeColor=none;fillColor=none;align=center;verticalAlign=middle;whiteSpace=wrap;rounded=0;rotation=-30;" vertex="1" parent="1">
          <mxGeometry x="384" y="120" width="60" height="30" as="geometry" />
        </mxCell>
        <mxCell id="Y7osBfzo1wvq5lJEdFJ6-40" value="&amp;lt;Include&amp;gt;" style="text;html=1;strokeColor=none;fillColor=none;align=center;verticalAlign=middle;whiteSpace=wrap;rounded=0;rotation=-10;" vertex="1" parent="1">
          <mxGeometry x="400" y="150" width="60" height="30" as="geometry" />
        </mxCell>
        <mxCell id="Y7osBfzo1wvq5lJEdFJ6-41" value="Agregar" style="ellipse;whiteSpace=wrap;html=1;fillColor=#B3B3B3;" vertex="1" parent="1">
          <mxGeometry x="420" y="200" width="70" height="20" as="geometry" />
        </mxCell>
        <mxCell id="Y7osBfzo1wvq5lJEdFJ6-42" value="Eliminar" style="ellipse;whiteSpace=wrap;html=1;fillColor=#B3B3B3;" vertex="1" parent="1">
          <mxGeometry x="460" y="220" width="90" height="20" as="geometry" />
        </mxCell>
        <mxCell id="Y7osBfzo1wvq5lJEdFJ6-43" value="Editar" style="ellipse;whiteSpace=wrap;html=1;fillColor=#B3B3B3;" vertex="1" parent="1">
          <mxGeometry x="450" y="260" width="90" height="20" as="geometry" />
        </mxCell>
        <mxCell id="Y7osBfzo1wvq5lJEdFJ6-44" value="" style="endArrow=none;html=1;rounded=0;exitX=1;exitY=0.5;exitDx=0;exitDy=0;entryX=0;entryY=0.5;entryDx=0;entryDy=0;" edge="1" parent="1" source="Y7osBfzo1wvq5lJEdFJ6-16" target="Y7osBfzo1wvq5lJEdFJ6-41">
          <mxGeometry width="50" height="50" relative="1" as="geometry">
            <mxPoint x="390" y="260" as="sourcePoint" />
            <mxPoint x="440" y="210" as="targetPoint" />
          </mxGeometry>
        </mxCell>
        <mxCell id="Y7osBfzo1wvq5lJEdFJ6-45" value="&amp;lt;Include&amp;gt;" style="text;html=1;strokeColor=none;fillColor=none;align=center;verticalAlign=middle;whiteSpace=wrap;rounded=0;rotation=-45;" vertex="1" parent="1">
          <mxGeometry x="370" y="200" width="60" height="30" as="geometry" />
        </mxCell>
        <mxCell id="Y7osBfzo1wvq5lJEdFJ6-46" value="" style="endArrow=none;html=1;rounded=0;exitX=1;exitY=0.5;exitDx=0;exitDy=0;entryX=0;entryY=0.5;entryDx=0;entryDy=0;" edge="1" parent="1" source="Y7osBfzo1wvq5lJEdFJ6-16" target="Y7osBfzo1wvq5lJEdFJ6-42">
          <mxGeometry width="50" height="50" relative="1" as="geometry">
            <mxPoint x="390" y="260" as="sourcePoint" />
            <mxPoint x="440" y="210" as="targetPoint" />
          </mxGeometry>
        </mxCell>
        <mxCell id="Y7osBfzo1wvq5lJEdFJ6-48" value="&amp;lt;Include&amp;gt;" style="text;html=1;strokeColor=none;fillColor=none;align=center;verticalAlign=middle;whiteSpace=wrap;rounded=0;rotation=-15;" vertex="1" parent="1">
          <mxGeometry x="400" y="230" width="60" height="30" as="geometry" />
        </mxCell>
        <mxCell id="Y7osBfzo1wvq5lJEdFJ6-49" value="" style="endArrow=none;html=1;rounded=0;exitX=1;exitY=0.5;exitDx=0;exitDy=0;entryX=0;entryY=0.5;entryDx=0;entryDy=0;" edge="1" parent="1" source="Y7osBfzo1wvq5lJEdFJ6-16" target="Y7osBfzo1wvq5lJEdFJ6-43">
          <mxGeometry width="50" height="50" relative="1" as="geometry">
            <mxPoint x="390" y="260" as="sourcePoint" />
            <mxPoint x="440" y="210" as="targetPoint" />
          </mxGeometry>
        </mxCell>
        <mxCell id="Y7osBfzo1wvq5lJEdFJ6-50" value="&amp;lt;Include&amp;gt;" style="text;html=1;strokeColor=none;fillColor=none;align=center;verticalAlign=middle;whiteSpace=wrap;rounded=0;rotation=20;" vertex="1" parent="1">
          <mxGeometry x="384.86" y="255.15" width="60" height="25" as="geometry" />
        </mxCell>
        <mxCell id="Y7osBfzo1wvq5lJEdFJ6-52" value="Agregar datos" style="ellipse;whiteSpace=wrap;html=1;fillColor=#B3B3B3;" vertex="1" parent="1">
          <mxGeometry x="430" y="320" width="90" height="20" as="geometry" />
        </mxCell>
        <mxCell id="Y7osBfzo1wvq5lJEdFJ6-53" value="Editar datos" style="ellipse;whiteSpace=wrap;html=1;fillColor=#B3B3B3;" vertex="1" parent="1">
          <mxGeometry x="444.86" y="380" width="90" height="20" as="geometry" />
        </mxCell>
        <mxCell id="Y7osBfzo1wvq5lJEdFJ6-54" value="" style="endArrow=none;html=1;rounded=0;exitX=1;exitY=0;exitDx=0;exitDy=0;entryX=0;entryY=0.5;entryDx=0;entryDy=0;" edge="1" parent="1" source="Y7osBfzo1wvq5lJEdFJ6-13" target="Y7osBfzo1wvq5lJEdFJ6-52">
          <mxGeometry width="50" height="50" relative="1" as="geometry">
            <mxPoint x="390" y="300" as="sourcePoint" />
            <mxPoint x="440" y="250" as="targetPoint" />
          </mxGeometry>
        </mxCell>
        <mxCell id="Y7osBfzo1wvq5lJEdFJ6-55" value="" style="endArrow=none;html=1;rounded=0;exitX=1;exitY=0.5;exitDx=0;exitDy=0;entryX=0;entryY=0.5;entryDx=0;entryDy=0;" edge="1" parent="1" source="Y7osBfzo1wvq5lJEdFJ6-13" target="Y7osBfzo1wvq5lJEdFJ6-53">
          <mxGeometry width="50" height="50" relative="1" as="geometry">
            <mxPoint x="390" y="300" as="sourcePoint" />
            <mxPoint x="440" y="250" as="targetPoint" />
          </mxGeometry>
        </mxCell>
        <mxCell id="Y7osBfzo1wvq5lJEdFJ6-56" value="&amp;lt;Include&amp;gt;" style="text;html=1;strokeColor=none;fillColor=none;align=center;verticalAlign=middle;whiteSpace=wrap;rounded=0;rotation=-30;" vertex="1" parent="1">
          <mxGeometry x="360" y="330.15" width="60" height="30" as="geometry" />
        </mxCell>
        <mxCell id="Y7osBfzo1wvq5lJEdFJ6-57" value="&amp;lt;Include&amp;gt;" style="text;html=1;strokeColor=none;fillColor=none;align=center;verticalAlign=middle;whiteSpace=wrap;rounded=0;rotation=-15;" vertex="1" parent="1">
          <mxGeometry x="370" y="370" width="60" height="30" as="geometry" />
        </mxCell>
        <mxCell id="Y7osBfzo1wvq5lJEdFJ6-58" value="" style="endArrow=none;html=1;rounded=0;exitX=0.5;exitY=0.5;exitDx=0;exitDy=0;exitPerimeter=0;entryX=0;entryY=0.5;entryDx=0;entryDy=0;" edge="1" parent="1" source="Y7osBfzo1wvq5lJEdFJ6-2" target="Y7osBfzo1wvq5lJEdFJ6-13">
          <mxGeometry width="50" height="50" relative="1" as="geometry">
            <mxPoint x="390" y="300" as="sourcePoint" />
            <mxPoint x="440" y="250" as="targetPoint" />
          </mxGeometry>
        </mxCell>
      </root>
    </mxGraphModel>
  </diagram>
</mxfile>
